<?xml version="1.0" encoding="UTF-8" standalone="no"?>
<svg
   xmlns:dc="http://purl.org/dc/elements/1.1/"
   xmlns:cc="http://creativecommons.org/ns#"
   xmlns:rdf="http://www.w3.org/1999/02/22-rdf-syntax-ns#"
   xmlns:svg="http://www.w3.org/2000/svg"
   xmlns="http://www.w3.org/2000/svg"
   xmlns:sodipodi="http://sodipodi.sourceforge.net/DTD/sodipodi-0.dtd"
   xmlns:inkscape="http://www.inkscape.org/namespaces/inkscape"
   version="1.1"
   id="svg2"
   xml:space="preserve"
   width="491.33868"
   height="566.92932"
   viewBox="0 0 491.33868 566.92932"
   sodipodi:docname="Shield_RGB_2014.ai"><metadata
     id="metadata8"><rdf:RDF><cc:Work
         rdf:about=""><dc:format>image/svg+xml</dc:format><dc:type
           rdf:resource="http://purl.org/dc/dcmitype/StillImage" /></cc:Work></rdf:RDF></metadata><defs
     id="defs6"><clipPath
       clipPathUnits="userSpaceOnUse"
       id="clipPath18"><path
         d="M 0,425.197 H 368.504 V 0 H 0 Z"
         id="path16" /></clipPath></defs><sodipodi:namedview
     pagecolor="#ffffff"
     bordercolor="#666666"
     borderopacity="1"
     objecttolerance="10"
     gridtolerance="10"
     guidetolerance="10"
     inkscape:pageopacity="0"
     inkscape:pageshadow="2"
     inkscape:window-width="640"
     inkscape:window-height="480"
     id="namedview4" /><g
     id="g10"
     inkscape:groupmode="layer"
     inkscape:label="Shield_RGB_2014"
     transform="matrix(1.3333333,0,0,-1.3333333,0,566.92933)"><g
       id="g12"><g
         id="g14"
         clip-path="url(#clipPath18)"><g
           id="g20"
           transform="translate(252.6954,147.7627)"><path
             d="m 0,0 c -6.462,-0.788 -16.28,-2.048 -18.65,-2.701 -2.414,-0.659 -4.766,-2.191 -5.796,-5.789 -0.677,-2.365 -1.927,-12.209 -2.704,-18.675 C -16.045,-20.452 -6.708,-11.109 0,0 m -68.407,-38.637 c 14.007,0 27.171,3.611 38.616,9.947 -0.749,6.317 -2.155,17.64 -2.892,20.2 -1.021,3.598 -3.378,5.13 -5.782,5.789 -3.626,0.995 -24.503,3.396 -24.503,3.396 v 1.44 c 0,0 20.877,2.401 24.503,3.399 2.404,0.66 4.761,2.182 5.782,5.789 0.979,3.409 3.189,22.574 3.424,24.632 -14.317,-2.65 -24.134,-9.255 -36.44,-15.547 -13.084,-6.691 -25.849,-11.489 -42.458,-11.489 -14.647,0 -27.676,4.76 -37.124,10.604 9.454,-33.56 40.29,-58.16 76.874,-58.16 m -78.56,172.108 h 8.557 v 6.687 h 3.048 c 7.969,0 13.009,4.105 13.009,11.26 0,7.86 -5.391,10.674 -14.181,10.674 -3.401,0 -7.501,-0.234 -10.433,-0.586 z m 28.014,0 h 8.557 v 11.026 h 8.908 v -11.026 h 8.557 v 28.035 h -8.557 v -11.143 h -8.908 v 11.143 h -8.557 z m 32.351,0 h 8.556 v 28.035 h -8.556 z m 14.885,0 h 15.471 l 1.288,5.631 h -8.203 v 22.404 h -8.556 z m 19.807,0 h 8.558 v 28.035 h -8.558 z m 15.005,0 h 8.554 v 6.687 h 3.048 c 7.97,0 13.012,4.105 13.012,11.26 0,7.86 -5.394,10.674 -14.184,10.674 -3.397,0 -7.503,-0.234 -10.43,-0.586 z m -31.502,-12.389 c -6.761,0 -13.323,-0.844 -19.593,-2.426 0.335,-2.81 1.289,-10.609 1.756,-12.236 0.571,-1.992 1.874,-2.839 3.21,-3.206 1.997,-0.55 13.245,-1.823 13.245,-1.823 v -0.799 c 0,0 -11.248,-1.329 -13.245,-1.879 -1.336,-0.366 -2.639,-1.214 -3.21,-3.205 -0.445,-1.55 -1.333,-8.708 -1.705,-11.809 6.653,-0.882 13.798,-1.703 13.798,-1.703 v -1.44 c 0,0 -20.881,-2.402 -24.491,-3.396 -2.413,-0.659 -4.765,-2.191 -5.796,-5.789 -0.951,-3.325 -3.035,-21.426 -3.346,-24.153 14.704,2.68 27.286,10.305 36.729,14.866 13.426,6.483 25.723,11.796 42.496,11.796 14.582,0 27.451,-4.672 36.886,-10.48 -9.611,33.315 -40.325,57.682 -76.734,57.682 m 72.055,20.131 c 0,-1.76 -1.288,-2.698 -4.452,-2.698 -2.814,0 -7.151,0.938 -9.729,2.229 l 0.936,-6.452 c 2.579,-0.938 6.094,-1.408 8.908,-1.408 7.152,0 13.012,2.347 13.012,9.386 0,9.382 -13.478,7.623 -13.478,12.08 0,1.526 1.523,2.231 3.984,2.231 2.694,0 5.627,-0.588 7.618,-1.411 l -0.703,6.102 c -2.227,0.469 -4.221,0.82 -7.853,0.82 -6.916,0 -11.606,-2.726 -11.606,-8.445 0,-9.853 13.363,-7.86 13.363,-12.434 M -27.881,36.184 c 0.186,-1.631 2.448,-21.407 3.435,-24.861 1.03,-3.607 3.382,-5.129 5.796,-5.789 2.566,-0.71 13.861,-2.128 20.176,-2.889 4.856,8.784 8.104,18.578 9.35,28.989 -8.803,3.544 -18.923,5.385 -27.228,5.385 -4.208,0 -8.015,-0.299 -11.529,-0.835 m -90.575,49.211 c 2.403,0.66 4.761,2.181 5.781,5.789 0.665,2.312 1.874,11.748 2.654,18.21 -10.847,-6.636 -19.988,-15.787 -26.611,-26.644 6.458,0.791 15.855,2.005 18.176,2.645 m -29.187,-34.153 c 8.759,-3.485 18.8,-5.227 27.102,-5.227 3.924,0 7.658,0.342 11.216,0.93 -0.321,2.862 -2.396,21.112 -3.35,24.426 -1.02,3.598 -3.378,5.13 -5.781,5.789 -2.523,0.692 -13.394,2.064 -19.776,2.836 -4.849,-8.713 -8.117,-18.426 -9.411,-28.754 m 56.836,44.266 c -0.564,1.991 -1.868,2.839 -3.2,3.205 -1.585,0.434 -8.92,1.353 -11.942,1.721 0.561,-4.167 1.129,-7.908 1.511,-9.25 1.031,-3.608 3.383,-5.129 5.796,-5.789 1.374,-0.38 5.251,-0.964 9.525,-1.54 -0.382,3.178 -1.249,10.127 -1.69,11.653 m 0,10.912 c 0.455,1.576 1.365,8.938 1.726,11.954 -6.42,-1.716 -12.522,-4.212 -18.196,-7.38 0.318,-2.677 0.743,-6.15 1.181,-9.469 2.926,0.342 10.479,1.248 12.089,1.689 1.332,0.367 2.636,1.214 3.2,3.206 m -56.861,-75.093 c 10.1,-6.43 24.16,-9.612 35.94,-9.612 17.848,0 28.593,5.314 40.361,11.185 16.176,8.07 29.603,16.581 50.68,16.471 12.758,-0.067 24.031,-3.405 32.133,-7.711 -0.014,3.362 -0.234,6.675 -0.651,9.927 -10.092,6.385 -24.106,9.665 -35.84,9.665 -17.846,0 -28.563,-5.457 -40.342,-11.306 -15.115,-7.507 -29.585,-16.527 -50.595,-16.527 -12.797,0 -32.285,7.832 -32.285,7.803 0,-3.315 0.206,-6.685 0.599,-9.895 M 23.683,178.843 V 41.304 c 0,-50.784 -41.336,-92.179 -92.124,-92.179 -51.671,0 -92.128,41.395 -92.128,92.179 v 137.539 c 11.997,1.479 50.457,5.048 92.13,5.048 40.744,0 79.75,-3.349 92.122,-5.048 M -46.651,-14.252 c -0.446,1.552 -1.46,10.313 -1.46,10.313 h -0.63 c 0,0 -1.015,-8.761 -1.461,-10.313 -0.44,-1.555 -1.455,-2.211 -2.493,-2.496 -1.563,-0.43 -10.317,-1.465 -10.317,-1.465 v -0.621 c 0,0 8.754,-1.035 10.317,-1.463 1.038,-0.285 2.053,-0.945 2.493,-2.495 0.446,-1.552 1.461,-10.315 1.461,-10.315 h 0.63 c 0,0 1.014,8.763 1.46,10.315 0.444,1.55 1.458,2.21 2.498,2.495 1.554,0.428 10.31,1.463 10.31,1.463 v 0.621 c 0,0 -8.756,1.035 -10.31,1.465 -1.04,0.285 -2.054,0.941 -2.498,2.496 m 26.339,165.553 c 0,3.519 -1.993,5.513 -6.211,5.513 -0.441,0 -0.91,0 -1.409,-0.03 v -11.582 h 1.409 c 4.452,0 6.211,2.463 6.211,6.099 m -116.271,-6.099 h -1.408 v 11.582 c 0.498,0.03 0.968,0.03 1.408,0.03 4.219,0 6.212,-1.994 6.212,-5.513 0,-3.636 -1.76,-6.099 -6.212,-6.099"
             style="fill:#0b5ed7;fill-opacity:1;fill-rule:nonzero;stroke:none"
             id="path22" /></g></g></g></g></svg>
